<mxfile host="app.diagrams.net" modified="2023-03-07T06:47:49.629Z" agent="5.0 (Windows NT 10.0; Win64; x64) AppleWebKit/537.36 (KHTML, like Gecko) Chrome/110.0.0.0 Safari/537.36 Edg/110.0.1587.63" etag="0Lic_ivXjacTXElijV4y" version="21.0.2" type="github">
  <diagram name="Page-1" id="PkVj4up8ihCNHAyrzkWb">
    <mxGraphModel dx="794" dy="470" grid="1" gridSize="10" guides="1" tooltips="1" connect="1" arrows="1" fold="1" page="1" pageScale="1" pageWidth="850" pageHeight="1100" math="1" shadow="0">
      <root>
        <mxCell id="0" />
        <mxCell id="1" parent="0" />
        <mxCell id="6QskEjfWfnUV3BZy3ldk-1" value="" style="rounded=1;whiteSpace=wrap;html=1;rotation=-90;" vertex="1" parent="1">
          <mxGeometry x="53.589999999999996" y="176.71" width="156.41" height="96.57" as="geometry" />
        </mxCell>
        <mxCell id="6QskEjfWfnUV3BZy3ldk-2" value="" style="rounded=1;whiteSpace=wrap;html=1;rotation=-90;" vertex="1" parent="1">
          <mxGeometry x="522.5" y="172.5" width="155" height="100" as="geometry" />
        </mxCell>
        <mxCell id="6QskEjfWfnUV3BZy3ldk-3" value="" style="rounded=1;whiteSpace=wrap;html=1;dashed=1;glass=1;" vertex="1" parent="1">
          <mxGeometry x="210" y="130" width="290" height="190" as="geometry" />
        </mxCell>
        <mxCell id="6QskEjfWfnUV3BZy3ldk-4" value="" style="rounded=0;whiteSpace=wrap;html=1;" vertex="1" parent="1">
          <mxGeometry x="240" y="256" width="30" height="18" as="geometry" />
        </mxCell>
        <mxCell id="6QskEjfWfnUV3BZy3ldk-5" value="" style="rounded=0;whiteSpace=wrap;html=1;" vertex="1" parent="1">
          <mxGeometry x="290" y="256" width="30" height="18" as="geometry" />
        </mxCell>
        <mxCell id="6QskEjfWfnUV3BZy3ldk-26" value="" style="edgeStyle=orthogonalEdgeStyle;rounded=0;orthogonalLoop=1;jettySize=auto;html=1;" edge="1" parent="1" source="6QskEjfWfnUV3BZy3ldk-6" target="6QskEjfWfnUV3BZy3ldk-25">
          <mxGeometry relative="1" as="geometry" />
        </mxCell>
        <mxCell id="6QskEjfWfnUV3BZy3ldk-6" value="" style="rounded=0;whiteSpace=wrap;html=1;" vertex="1" parent="1">
          <mxGeometry x="340" y="256" width="30" height="18" as="geometry" />
        </mxCell>
        <mxCell id="6QskEjfWfnUV3BZy3ldk-7" value="" style="rounded=0;whiteSpace=wrap;html=1;" vertex="1" parent="1">
          <mxGeometry x="395" y="256" width="30" height="18" as="geometry" />
        </mxCell>
        <mxCell id="6QskEjfWfnUV3BZy3ldk-11" value="Hidden state&lt;br&gt;h&lt;sub&gt;t-1&lt;/sub&gt;" style="text;html=1;strokeColor=none;fillColor=none;align=center;verticalAlign=middle;whiteSpace=wrap;rounded=0;" vertex="1" parent="1">
          <mxGeometry x="96.72" y="256" width="70" height="30" as="geometry" />
        </mxCell>
        <mxCell id="6QskEjfWfnUV3BZy3ldk-12" value="c&lt;sub&gt;t-1&amp;nbsp;&amp;nbsp;&lt;/sub&gt;&lt;br&gt;cell state" style="text;html=1;strokeColor=none;fillColor=none;align=center;verticalAlign=middle;whiteSpace=wrap;rounded=0;" vertex="1" parent="1">
          <mxGeometry x="100" y="150" width="60" height="30" as="geometry" />
        </mxCell>
        <mxCell id="6QskEjfWfnUV3BZy3ldk-13" value="c&lt;sub&gt;t+1&lt;br&gt;next cell state&lt;br&gt;&lt;/sub&gt;" style="text;html=1;strokeColor=none;fillColor=none;align=center;verticalAlign=middle;whiteSpace=wrap;rounded=0;" vertex="1" parent="1">
          <mxGeometry x="560" y="150" width="70" height="40" as="geometry" />
        </mxCell>
        <mxCell id="6QskEjfWfnUV3BZy3ldk-14" value="&lt;font style=&quot;font-size: 11px;&quot;&gt;next hidden state&lt;br&gt;h&lt;/font&gt;&lt;font style=&quot;font-size: 11px;&quot;&gt;&lt;sub style=&quot;&quot;&gt;&lt;font style=&quot;font-size: 11px;&quot;&gt;t+1&lt;/font&gt;&lt;/sub&gt;&lt;br&gt;&lt;/font&gt;" style="text;html=1;strokeColor=none;fillColor=none;align=center;verticalAlign=middle;whiteSpace=wrap;rounded=0;" vertex="1" parent="1">
          <mxGeometry x="550" y="265.48" width="100" height="30" as="geometry" />
        </mxCell>
        <mxCell id="6QskEjfWfnUV3BZy3ldk-15" value="" style="endArrow=none;html=1;rounded=0;exitX=0.837;exitY=1.289;exitDx=0;exitDy=0;exitPerimeter=0;" edge="1" parent="1" source="6QskEjfWfnUV3BZy3ldk-11">
          <mxGeometry width="50" height="50" relative="1" as="geometry">
            <mxPoint x="159.92" y="286" as="sourcePoint" />
            <mxPoint x="410" y="295" as="targetPoint" />
          </mxGeometry>
        </mxCell>
        <mxCell id="6QskEjfWfnUV3BZy3ldk-16" value="" style="endArrow=classic;html=1;rounded=0;" edge="1" parent="1">
          <mxGeometry width="50" height="50" relative="1" as="geometry">
            <mxPoint x="250" y="296" as="sourcePoint" />
            <mxPoint x="250" y="280" as="targetPoint" />
          </mxGeometry>
        </mxCell>
        <mxCell id="6QskEjfWfnUV3BZy3ldk-19" value="" style="endArrow=classic;html=1;rounded=0;" edge="1" parent="1">
          <mxGeometry width="50" height="50" relative="1" as="geometry">
            <mxPoint x="300" y="295.48" as="sourcePoint" />
            <mxPoint x="300" y="280" as="targetPoint" />
          </mxGeometry>
        </mxCell>
        <mxCell id="6QskEjfWfnUV3BZy3ldk-20" value="" style="endArrow=classic;html=1;rounded=0;" edge="1" parent="1">
          <mxGeometry width="50" height="50" relative="1" as="geometry">
            <mxPoint x="350" y="295.48" as="sourcePoint" />
            <mxPoint x="350" y="280" as="targetPoint" />
          </mxGeometry>
        </mxCell>
        <mxCell id="6QskEjfWfnUV3BZy3ldk-21" value="" style="endArrow=classic;html=1;rounded=0;entryX=0.5;entryY=1;entryDx=0;entryDy=0;" edge="1" parent="1" target="6QskEjfWfnUV3BZy3ldk-7">
          <mxGeometry width="50" height="50" relative="1" as="geometry">
            <mxPoint x="410" y="296" as="sourcePoint" />
            <mxPoint x="450" y="246" as="targetPoint" />
          </mxGeometry>
        </mxCell>
        <mxCell id="6QskEjfWfnUV3BZy3ldk-22" value="" style="endArrow=classic;html=1;rounded=0;entryX=0.103;entryY=0.224;entryDx=0;entryDy=0;entryPerimeter=0;" edge="1" parent="1" target="6QskEjfWfnUV3BZy3ldk-3">
          <mxGeometry width="50" height="50" relative="1" as="geometry">
            <mxPoint x="160" y="172.5" as="sourcePoint" />
            <mxPoint x="210" y="122.5" as="targetPoint" />
          </mxGeometry>
        </mxCell>
        <mxCell id="6QskEjfWfnUV3BZy3ldk-23" value="" style="ellipse;whiteSpace=wrap;html=1;aspect=fixed;" vertex="1" parent="1">
          <mxGeometry x="240" y="150" width="40" height="40" as="geometry" />
        </mxCell>
        <mxCell id="6QskEjfWfnUV3BZy3ldk-32" value="" style="edgeStyle=orthogonalEdgeStyle;rounded=0;orthogonalLoop=1;jettySize=auto;html=1;" edge="1" parent="1" source="6QskEjfWfnUV3BZy3ldk-24" target="6QskEjfWfnUV3BZy3ldk-31">
          <mxGeometry relative="1" as="geometry" />
        </mxCell>
        <mxCell id="6QskEjfWfnUV3BZy3ldk-24" value="X" style="text;html=1;strokeColor=none;fillColor=none;align=center;verticalAlign=middle;whiteSpace=wrap;rounded=0;" vertex="1" parent="1">
          <mxGeometry x="250" y="165" width="20" height="10" as="geometry" />
        </mxCell>
        <mxCell id="6QskEjfWfnUV3BZy3ldk-25" value="" style="ellipse;whiteSpace=wrap;html=1;rounded=0;" vertex="1" parent="1">
          <mxGeometry x="342" y="209.5" width="26" height="26" as="geometry" />
        </mxCell>
        <mxCell id="6QskEjfWfnUV3BZy3ldk-27" value="X" style="text;html=1;strokeColor=none;fillColor=none;align=center;verticalAlign=middle;whiteSpace=wrap;rounded=0;" vertex="1" parent="1">
          <mxGeometry x="350" y="220" width="10" height="5" as="geometry" />
        </mxCell>
        <mxCell id="6QskEjfWfnUV3BZy3ldk-28" value="" style="ellipse;whiteSpace=wrap;html=1;aspect=fixed;" vertex="1" parent="1">
          <mxGeometry x="340" y="150" width="30" height="30" as="geometry" />
        </mxCell>
        <mxCell id="6QskEjfWfnUV3BZy3ldk-29" value="" style="endArrow=classic;html=1;rounded=0;exitX=0.5;exitY=0;exitDx=0;exitDy=0;entryX=0.5;entryY=1;entryDx=0;entryDy=0;" edge="1" parent="1" source="6QskEjfWfnUV3BZy3ldk-25" target="6QskEjfWfnUV3BZy3ldk-28">
          <mxGeometry width="50" height="50" relative="1" as="geometry">
            <mxPoint x="390" y="210" as="sourcePoint" />
            <mxPoint x="430" y="170" as="targetPoint" />
          </mxGeometry>
        </mxCell>
        <mxCell id="6QskEjfWfnUV3BZy3ldk-30" value="" style="endArrow=classic;html=1;rounded=0;exitX=1;exitY=0.5;exitDx=0;exitDy=0;" edge="1" parent="1" source="6QskEjfWfnUV3BZy3ldk-23">
          <mxGeometry width="50" height="50" relative="1" as="geometry">
            <mxPoint x="280" y="172.5" as="sourcePoint" />
            <mxPoint x="330" y="170" as="targetPoint" />
          </mxGeometry>
        </mxCell>
        <mxCell id="6QskEjfWfnUV3BZy3ldk-31" value="+" style="text;html=1;strokeColor=none;fillColor=none;align=center;verticalAlign=middle;whiteSpace=wrap;rounded=0;" vertex="1" parent="1">
          <mxGeometry x="350" y="167.5" width="10" height="5" as="geometry" />
        </mxCell>
        <mxCell id="6QskEjfWfnUV3BZy3ldk-33" value="" style="endArrow=classic;html=1;rounded=0;entryX=-1;entryY=0;entryDx=0;entryDy=0;entryPerimeter=0;" edge="1" parent="1" target="6QskEjfWfnUV3BZy3ldk-27">
          <mxGeometry width="50" height="50" relative="1" as="geometry">
            <mxPoint x="300" y="256" as="sourcePoint" />
            <mxPoint x="350" y="206" as="targetPoint" />
            <Array as="points">
              <mxPoint x="300" y="220" />
            </Array>
          </mxGeometry>
        </mxCell>
        <mxCell id="6QskEjfWfnUV3BZy3ldk-35" value="" style="ellipse;whiteSpace=wrap;html=1;aspect=fixed;" vertex="1" parent="1">
          <mxGeometry x="440" y="220" width="20" height="20" as="geometry" />
        </mxCell>
        <mxCell id="6QskEjfWfnUV3BZy3ldk-36" value="X" style="text;html=1;strokeColor=none;fillColor=none;align=center;verticalAlign=middle;whiteSpace=wrap;rounded=0;" vertex="1" parent="1">
          <mxGeometry x="450" y="230" as="geometry" />
        </mxCell>
        <mxCell id="6QskEjfWfnUV3BZy3ldk-37" value="" style="endArrow=classic;html=1;rounded=0;startArrow=none;" edge="1" parent="1" source="6QskEjfWfnUV3BZy3ldk-68">
          <mxGeometry width="50" height="50" relative="1" as="geometry">
            <mxPoint x="410" y="255" as="sourcePoint" />
            <mxPoint x="440" y="230" as="targetPoint" />
            <Array as="points">
              <mxPoint x="410" y="230" />
            </Array>
          </mxGeometry>
        </mxCell>
        <mxCell id="6QskEjfWfnUV3BZy3ldk-38" value="" style="rounded=0;whiteSpace=wrap;html=1;" vertex="1" parent="1">
          <mxGeometry x="430" y="176.71" width="40" height="20" as="geometry" />
        </mxCell>
        <mxCell id="6QskEjfWfnUV3BZy3ldk-39" value="tanh" style="text;html=1;strokeColor=none;fillColor=none;align=center;verticalAlign=middle;whiteSpace=wrap;rounded=0;" vertex="1" parent="1">
          <mxGeometry x="440" y="182.5" width="20" height="10" as="geometry" />
        </mxCell>
        <mxCell id="6QskEjfWfnUV3BZy3ldk-40" value="tanh" style="text;html=1;strokeColor=none;fillColor=none;align=center;verticalAlign=middle;whiteSpace=wrap;rounded=0;" vertex="1" parent="1">
          <mxGeometry x="350" y="262.5" width="10" height="5" as="geometry" />
        </mxCell>
        <mxCell id="6QskEjfWfnUV3BZy3ldk-41" value="" style="endArrow=classic;html=1;rounded=0;exitX=1;exitY=0.5;exitDx=0;exitDy=0;" edge="1" parent="1" source="6QskEjfWfnUV3BZy3ldk-28">
          <mxGeometry width="50" height="50" relative="1" as="geometry">
            <mxPoint x="370" y="167.5" as="sourcePoint" />
            <mxPoint x="570" y="165" as="targetPoint" />
          </mxGeometry>
        </mxCell>
        <mxCell id="6QskEjfWfnUV3BZy3ldk-42" value="" style="endArrow=classic;html=1;rounded=0;exitX=0.4;exitY=1.75;exitDx=0;exitDy=0;exitPerimeter=0;" edge="1" parent="1" source="6QskEjfWfnUV3BZy3ldk-39">
          <mxGeometry width="50" height="50" relative="1" as="geometry">
            <mxPoint x="390" y="220" as="sourcePoint" />
            <mxPoint x="448" y="220" as="targetPoint" />
          </mxGeometry>
        </mxCell>
        <mxCell id="6QskEjfWfnUV3BZy3ldk-43" value="" style="endArrow=classic;html=1;rounded=0;entryX=0;entryY=0.5;entryDx=0;entryDy=0;" edge="1" parent="1" target="6QskEjfWfnUV3BZy3ldk-14">
          <mxGeometry width="50" height="50" relative="1" as="geometry">
            <mxPoint x="450" y="240" as="sourcePoint" />
            <mxPoint x="500" y="340" as="targetPoint" />
            <Array as="points">
              <mxPoint x="450" y="280" />
            </Array>
          </mxGeometry>
        </mxCell>
        <mxCell id="6QskEjfWfnUV3BZy3ldk-44" value="" style="endArrow=classic;html=1;rounded=0;" edge="1" parent="1">
          <mxGeometry width="50" height="50" relative="1" as="geometry">
            <mxPoint x="480" y="280" as="sourcePoint" />
            <mxPoint x="480" y="110" as="targetPoint" />
          </mxGeometry>
        </mxCell>
        <mxCell id="6QskEjfWfnUV3BZy3ldk-45" value="" style="endArrow=classic;html=1;rounded=0;entryX=0;entryY=0.5;entryDx=0;entryDy=0;" edge="1" parent="1" target="6QskEjfWfnUV3BZy3ldk-1">
          <mxGeometry width="50" height="50" relative="1" as="geometry">
            <mxPoint x="132" y="340" as="sourcePoint" />
            <mxPoint x="130" y="310" as="targetPoint" />
          </mxGeometry>
        </mxCell>
        <mxCell id="6QskEjfWfnUV3BZy3ldk-46" value="" style="endArrow=classic;html=1;rounded=0;" edge="1" parent="1">
          <mxGeometry width="50" height="50" relative="1" as="geometry">
            <mxPoint x="240" y="340" as="sourcePoint" />
            <mxPoint x="240" y="295.48" as="targetPoint" />
          </mxGeometry>
        </mxCell>
        <mxCell id="6QskEjfWfnUV3BZy3ldk-47" value="" style="ellipse;whiteSpace=wrap;html=1;aspect=fixed;" vertex="1" parent="1">
          <mxGeometry x="111.72" y="340" width="40" height="40" as="geometry" />
        </mxCell>
        <mxCell id="6QskEjfWfnUV3BZy3ldk-48" value="x&lt;sub&gt;t-1&lt;/sub&gt;" style="text;html=1;strokeColor=none;fillColor=none;align=center;verticalAlign=middle;whiteSpace=wrap;rounded=0;" vertex="1" parent="1">
          <mxGeometry x="113.6" y="350.9" width="36.4" height="18.2" as="geometry" />
        </mxCell>
        <mxCell id="6QskEjfWfnUV3BZy3ldk-49" value="" style="ellipse;whiteSpace=wrap;html=1;aspect=fixed;" vertex="1" parent="1">
          <mxGeometry x="220" y="340" width="40" height="40" as="geometry" />
        </mxCell>
        <mxCell id="6QskEjfWfnUV3BZy3ldk-50" value="x&lt;sub&gt;t&lt;/sub&gt;" style="text;html=1;strokeColor=none;fillColor=none;align=center;verticalAlign=middle;whiteSpace=wrap;rounded=0;" vertex="1" parent="1">
          <mxGeometry x="210" y="345" width="60" height="30" as="geometry" />
        </mxCell>
        <mxCell id="6QskEjfWfnUV3BZy3ldk-51" value="" style="endArrow=classic;html=1;rounded=0;" edge="1" parent="1">
          <mxGeometry width="50" height="50" relative="1" as="geometry">
            <mxPoint x="610" y="330" as="sourcePoint" />
            <mxPoint x="610" y="300.9" as="targetPoint" />
          </mxGeometry>
        </mxCell>
        <mxCell id="6QskEjfWfnUV3BZy3ldk-52" value="" style="ellipse;whiteSpace=wrap;html=1;aspect=fixed;" vertex="1" parent="1">
          <mxGeometry x="590" y="329.1" width="40" height="40" as="geometry" />
        </mxCell>
        <mxCell id="6QskEjfWfnUV3BZy3ldk-53" value="x&lt;sub&gt;t+1&lt;/sub&gt;" style="text;html=1;strokeColor=none;fillColor=none;align=center;verticalAlign=middle;whiteSpace=wrap;rounded=0;" vertex="1" parent="1">
          <mxGeometry x="580" y="334.1" width="60" height="30" as="geometry" />
        </mxCell>
        <mxCell id="6QskEjfWfnUV3BZy3ldk-54" value="" style="endArrow=classic;html=1;rounded=0;" edge="1" parent="1">
          <mxGeometry width="50" height="50" relative="1" as="geometry">
            <mxPoint x="140" y="150" as="sourcePoint" />
            <mxPoint x="140" y="110" as="targetPoint" />
          </mxGeometry>
        </mxCell>
        <mxCell id="6QskEjfWfnUV3BZy3ldk-55" value="" style="endArrow=classic;html=1;rounded=0;" edge="1" parent="1">
          <mxGeometry width="50" height="50" relative="1" as="geometry">
            <mxPoint x="600" y="150" as="sourcePoint" />
            <mxPoint x="600" y="110" as="targetPoint" />
          </mxGeometry>
        </mxCell>
        <mxCell id="6QskEjfWfnUV3BZy3ldk-56" value="" style="ellipse;whiteSpace=wrap;html=1;aspect=fixed;" vertex="1" parent="1">
          <mxGeometry x="120" y="70" width="40" height="40" as="geometry" />
        </mxCell>
        <mxCell id="6QskEjfWfnUV3BZy3ldk-57" value="" style="ellipse;whiteSpace=wrap;html=1;aspect=fixed;" vertex="1" parent="1">
          <mxGeometry x="460" y="70" width="40" height="40" as="geometry" />
        </mxCell>
        <mxCell id="6QskEjfWfnUV3BZy3ldk-58" value="" style="ellipse;whiteSpace=wrap;html=1;aspect=fixed;" vertex="1" parent="1">
          <mxGeometry x="580" y="70" width="40" height="40" as="geometry" />
        </mxCell>
        <mxCell id="6QskEjfWfnUV3BZy3ldk-59" value="u&lt;sub&gt;t-1&lt;/sub&gt;" style="text;html=1;strokeColor=none;fillColor=none;align=center;verticalAlign=middle;whiteSpace=wrap;rounded=0;" vertex="1" parent="1">
          <mxGeometry x="120" y="80" width="40" height="20" as="geometry" />
        </mxCell>
        <mxCell id="6QskEjfWfnUV3BZy3ldk-60" value="u&lt;sub&gt;t&lt;/sub&gt;" style="text;html=1;strokeColor=none;fillColor=none;align=center;verticalAlign=middle;whiteSpace=wrap;rounded=0;" vertex="1" parent="1">
          <mxGeometry x="470" y="85" width="20" height="10" as="geometry" />
        </mxCell>
        <mxCell id="6QskEjfWfnUV3BZy3ldk-61" value="u&lt;sub&gt;t+1&lt;/sub&gt;" style="text;html=1;strokeColor=none;fillColor=none;align=center;verticalAlign=middle;whiteSpace=wrap;rounded=0;" vertex="1" parent="1">
          <mxGeometry x="590" y="85" width="20" height="10" as="geometry" />
        </mxCell>
        <mxCell id="6QskEjfWfnUV3BZy3ldk-62" value="input token" style="text;html=1;strokeColor=none;fillColor=none;align=center;verticalAlign=middle;whiteSpace=wrap;rounded=0;" vertex="1" parent="1">
          <mxGeometry x="106.72000000000003" y="380" width="60" height="30" as="geometry" />
        </mxCell>
        <mxCell id="6QskEjfWfnUV3BZy3ldk-63" value="output token" style="text;html=1;strokeColor=none;fillColor=none;align=center;verticalAlign=middle;whiteSpace=wrap;rounded=0;" vertex="1" parent="1">
          <mxGeometry x="106.72000000000003" y="40" width="60" height="30" as="geometry" />
        </mxCell>
        <mxCell id="6QskEjfWfnUV3BZy3ldk-65" value="" style="endArrow=classic;html=1;rounded=0;entryX=0.5;entryY=0;entryDx=0;entryDy=0;" edge="1" parent="1" target="6QskEjfWfnUV3BZy3ldk-39">
          <mxGeometry width="50" height="50" relative="1" as="geometry">
            <mxPoint x="450" y="165" as="sourcePoint" />
            <mxPoint x="450" y="184" as="targetPoint" />
          </mxGeometry>
        </mxCell>
        <mxCell id="6QskEjfWfnUV3BZy3ldk-66" value="$$\sigma$$" style="text;html=1;strokeColor=none;fillColor=none;align=center;verticalAlign=middle;whiteSpace=wrap;rounded=0;" vertex="1" parent="1">
          <mxGeometry x="250" y="260" width="10" height="10" as="geometry" />
        </mxCell>
        <mxCell id="6QskEjfWfnUV3BZy3ldk-67" value="$$\sigma$$" style="text;html=1;strokeColor=none;fillColor=none;align=center;verticalAlign=middle;whiteSpace=wrap;rounded=0;" vertex="1" parent="1">
          <mxGeometry x="300" y="260" width="10" height="10" as="geometry" />
        </mxCell>
        <mxCell id="6QskEjfWfnUV3BZy3ldk-69" value="" style="endArrow=none;html=1;rounded=0;" edge="1" parent="1" target="6QskEjfWfnUV3BZy3ldk-68">
          <mxGeometry width="50" height="50" relative="1" as="geometry">
            <mxPoint x="410" y="255" as="sourcePoint" />
            <mxPoint x="440" y="230" as="targetPoint" />
            <Array as="points" />
          </mxGeometry>
        </mxCell>
        <mxCell id="6QskEjfWfnUV3BZy3ldk-68" value="$$\sigma$$" style="text;html=1;strokeColor=none;fillColor=none;align=center;verticalAlign=middle;whiteSpace=wrap;rounded=0;" vertex="1" parent="1">
          <mxGeometry x="400" y="255" width="20" height="20" as="geometry" />
        </mxCell>
      </root>
    </mxGraphModel>
  </diagram>
</mxfile>
